<!DOCTYPE svg PUBLIC "-//W3C//DTD SVG 20010904//EN" "http://www.w3.org/TR/2001/REC-SVG-20010904/DTD/svg10.dtd">
<svg version="1.0" xmlns="http://www.w3.org/2000/svg" width="855px" height="403px" viewBox="0 0 8550 4030" preserveAspectRatio="xMidYMid meet">
<g id="layer1" fill="#000000" stroke="none">
 <path d="M1235 3506 l-530 -132 -7 -49 c-5 -28 -20 -103 -35 -168 l-27 -118 395 -395 c216 -217 400 -394 407 -394 7 0 47 26 88 57 l74 57 0 59 0 59 -139 144 -138 144 -7 87 c-7 84 -6 88 30 175 32 78 43 93 88 126 28 20 76 59 106 87 35 32 90 66 150 94 52 24 102 47 110 51 12 6 15 30 15 126 l0 119 -25 2 c-14 0 -263 -58 -555 -131z"/>
 <path d="M1915 3618 c-2 -7 -9 -71 -15 -143 -6 -71 -14 -140 -16 -151 -4 -17 -45 -40 -175 -100 -169 -77 -170 -77 -241 -156 l-72 -80 37 -111 c30 -91 49 -130 104 -208 38 -52 89 -120 115 -150 l47 -55 -10 -94 c-8 -75 -17 -106 -42 -152 -22 -39 -29 -60 -22 -67 23 -23 2296 -653 3490 -967 699 -184 1283 -336 1299 -337 l29 -2 234 744 c189 601 231 747 221 757 -7 6 -1025 280 -2263 608 -1781 472 -2295 604 -2465 636 -238 44 -249 45 -255 28z"/>
 <path d="M486 3320 c-37 -10 -73 -23 -79 -29 -8 -8 9 -32 63 -86 41 -41 80 -75 86 -75 7 0 22 15 34 34 17 28 20 48 18 103 -3 65 -4 68 -28 70 -14 1 -56 -7 -94 -17z"/>
 <path d="M6947 2323 c-4 -6 -97 -345 -208 -754 -188 -697 -200 -744 -183 -756 26 -19 43 -16 53 10 36 95 441 1481 434 1488 -13 13 -90 22 -96 12z"/>
 <path d="M7130 2258 c-5 -13 -105 -348 -221 -746 -155 -527 -209 -726 -201 -734 6 -6 230 -66 499 -134 447 -113 496 -124 579 -124 62 0 95 4 101 13 23 28 78 199 207 637 l136 466 0 126 c0 88 -4 129 -12 136 -7 6 -182 77 -388 159 -260 104 -418 161 -516 186 -77 21 -148 37 -158 37 -9 0 -21 -10 -26 -22z"/>
 </g>

</svg>