<?xml version="1.0" standalone="no"?>
<!DOCTYPE svg PUBLIC "-//W3C//DTD SVG 20010904//EN"
 "http://www.w3.org/TR/2001/REC-SVG-20010904/DTD/svg10.dtd">
<svg version="1.0" xmlns="http://www.w3.org/2000/svg"
 width="848.000000pt" height="848.000000pt" viewBox="0 0 848.000000 848.000000"
 preserveAspectRatio="xMidYMid meet">
<metadata>
Created by potrace 1.11, written by Peter Selinger 2001-2013
</metadata>
<g transform="translate(0.000000,848.000000) scale(0.100000,-0.100000)"
fill="#000000" stroke="none">
<path d="M440 4240 l0 -4240 3800 0 3800 0 0 1065 c0 1007 -1 1065 -17 1066
-10 0 -1164 1 -2565 1 l-2547 1 0 3151 c0 1733 0 3161 -1 3174 l0 22 -1235 0
-1235 0 0 -4240z"/>
<path d="M3380 6125 c-4 -5 -8 -740 -8 -1631 l0 -1622 1789 0 1789 0 1 22 c4
127 0 1268 -5 1273 -3 3 -462 6 -1019 6 l-1014 0 1 978 1 979 -30 1 c-16 0
-360 1 -763 2 -479 1 -737 -1 -742 -8z"/>
</g>
</svg>
